<?xml version="1.0"?>
<svg xmlns:rdf="http://www.w3.org/1999/02/22-rdf-syntax-ns#" xmlns="http://www.w3.org/2000/svg" xmlns:cc="http://creativecommons.org/ns#" xmlns:dc="http://purl.org/dc/elements/1.1/" xmlns:svg="http://www.w3.org/2000/svg" id="svg2" viewBox="0 0 354.71 399.27" version="1.1">
  <title id="title3008">Rock Art</title>
  <path id="path2987" fill="#77213a" d="m238.17 398.82c-2.5366-1.015-5.357-4.7618-5.357-7.1166 0-2.2637-2.4512-3.0436-5.6926-1.8113-6.2757 2.386-12.281-3.9075-10.353-10.85 1.442-5.1922 1.4288-5.2231-2.2323-5.2231-5.4862 0-7.7225-2.3273-7.7225-8.0365 0-7.6602 2.3475-12.092 10.013-18.905 3.7712-3.3517 7.8986-7.8615 9.1719-10.022 8.3518-14.17 8.9217-14.917 12.219-16.005 4.3791-1.4452 11.797 0.17326 16.891 3.6857 2.9281 2.0188 5.495 2.7552 11.242 3.2253 7.3853 0.60407 7.4927 0.65411 12.931 6.0243 4.3996 4.345 5.8994 6.7115 7.5888 11.974 1.158 3.6073 3.6442 8.5452 5.525 10.973 1.8807 2.4278 3.4194 5.0376 3.4194 5.7997 0 3.037-3.7008 8.2253-12.33 17.286-7.2539 7.6166-10.745 10.411-17.609 14.095-7.6865 4.1252-9.4292 4.6543-17.061 5.1793-4.675 0.32163-9.4644 0.1989-10.643-0.27273zm11.643-30.501c1.1897-1.925 2.8219-3.5 3.627-3.5 2.3606 0 6.373-4.6915 6.373-7.4517 0-1.5168-1.459-4.1575-3.6164-6.5455-3.2547-3.6026-4.092-4.0029-8.3726-4.0029-4.3801 0-5.096 0.36857-9.0518 4.6601l-4.2955 4.6601 2.6521 2.1147c1.4586 1.1631 3.4061 4.3536 4.3276 7.0899 2.5554 7.5878 4.9737 8.4489 8.3566 2.9752zm-145 26.981c-9.8574-1.5079-25.162-8.6548-28.089-13.117-0.94493-1.4405-4.5739-5.0848-8.0643-8.0984-6.3014-5.4406-9.7698-10.732-9.82-14.981-0.01442-1.2184 1.2914-3.7159 2.9019-5.5502 1.6105-1.8342 3.7164-5.3374 4.6799-7.7848 2.5045-6.3619 5.5193-10.805 10.805-15.925 4.432-4.2924 4.9248-4.4996 12.093-5.086 4.9716-0.40664 8.1085-1.1862 9.371-2.3287 1.0438-0.94461 4.2225-2.6008 7.0639-3.6804 6.9858-2.6544 22.035-1.7768 29.558 1.7237 2.75 1.2796 5.8098 2.331 6.7997 2.3363 2.3817 0.0129 7.4574 2.6618 11.303 5.8984 1.7062 1.4362 4.4907 3.3618 6.1877 4.2791 1.697 0.91726 4.0631 3.5841 5.258 5.9263 4.437 8.6972 0.46544 19.585-8.8694 24.315-2.7969 1.4173-5.8947 4.0409-7.3969 6.2645-4.5573 6.7462-6.1088 8.545-15.545 18.022l-9.2632 9.3037-5.2368-0.10956c-2.8802-0.0603-9.0618-0.69468-13.737-1.4098zm10.097-27.795c3.0783-0.65219 6.3141-1.7812 7.1905-2.5089 1.7092-1.4191 6.7125-13.629 6.7125-16.381 0-1.7926-1.299-2.3579-7.5-3.2643-2.2-0.32155-6.6131-1.0019-9.8069-1.5119-7.006-1.1187-9.3045-0.36559-13.513 4.4276-2.5386 2.8913-3.0632 4.1969-2.5498 6.3463 1.0424 4.3639 2.3302 6.2405 4.9718 7.2449 1.3643 0.5187 3.2494 2.2943 4.1892 3.9458 1.8935 3.3276 2.3069 3.3958 10.306 1.7012zm69.4-49.49c-4.0969-0.82066-7.6273-5.608-8.8411-11.989-0.81546-4.2867-7.23-17.604-9.3112-19.332-0.88887-0.7377-5.3659-1.6328-9.949-1.9892-5.7188-0.44468-9.4364-1.2991-11.851-2.7236-5.5033-3.247-10.514-4.2748-15.079-3.0934-6.3476 1.6425-8.5224 3.1179-10.601 7.1919-5.7542 11.279-17.859 17.879-27.161 14.809-6.8345-2.2556-8.9301-10.273-4.1654-15.935 1.3978-1.6612 3.2401-5.0708 4.094-7.5767 0.85387-2.506 1.9177-4.5563 2.3641-4.5563 0.44638 0 2.0803-2.748 3.6308-6.1066 2.1329-4.62 3.9209-6.8469 7.3444-9.1472 2.4888-1.6723 6.6869-5.2604 9.3291-7.9734 2.6422-2.7131 6.8038-5.8175 9.2481-6.8987 4.6636-2.0629 7.448-5.8722 7.448-10.189 0-3.5767 3.3289-7.1669 7.921-8.5427 2.809-0.84159 4.8293-2.3522 6.5679-4.9108 3.3571-4.9404 3.1812-6.0579-1.239-7.8729-2.0625-0.84688-5.2388-2.9614-7.0584-4.699-3.2326-3.0867-3.5197-3.1581-12.519-3.1129-8.84 0.0444-9.4522 0.19531-15.211 3.75-3.3003 2.0371-7.0186 3.7038-8.263 3.7038-4.5622 0-9.0208-2.8454-13.09-8.3536-2.2507-3.0466-6.2332-7.0008-8.8502-8.787-7.0294-4.798-32.762-29.581-36.715-35.359-1.8811-2.75-5.0507-6.8-7.0436-9s-5.6815-8.275-8.1968-13.5c-2.5154-5.225-6.1391-11.246-8.0528-13.38-5.271-5.8779-8.3104-13.447-9.1963-22.903-0.52124-5.5633-1.4696-9.3877-2.9363-11.842-1.1915-1.9934-2.8015-7.1684-3.5777-11.5-0.77621-4.3316-1.9481-9.3781-2.6041-11.214-1.4693-4.1126-0.74318-10.913 1.9981-18.712 2.489-7.0816 2.5392-9.1111 0.45377-18.346-2.6774-11.856 0.10627-22.911 6.766-26.872 2.4411-1.4516 3.0404-1.4311 7.5 0.25664 2.6658 1.0089 6.4673 3.4492 8.4478 5.4228 3.1454 3.1345 3.6904 4.4109 4.3076 10.089 0.85543 7.8691 4.5804 20.119 8.287 27.253 3.648 7.0208 3.8843 16.42 0.5544 22.054-3.3273 5.63-2.9923 9.7211 2.3215 28.347 0.80878 2.835 4.0296 8.91 7.1575 13.5 3.1278 4.59 6.94 11.421 8.4714 15.18 1.5314 3.7592 3.6283 8.0342 4.6596 9.5s3.3023 5.4237 5.0467 8.7954c3.7704 7.288 4.1746 7.6602 15.093 13.898 16.047 9.1667 17.735 9.7942 25.97 9.6546 6.4535-0.10947 9.2196 0.48191 20.325 4.3454 14.454 5.0284 16.876 5.2879 23.519 2.5203 2.577-1.0735 6.621-2.4471 8.9869-3.0524 2.3658-0.60531 4.5676-1.794 4.8928-2.6415 0.32522-0.8475 0.0159-4.5902-0.68727-8.3171-1.6675-8.8374-0.86393-12.537 4.0023-18.426 2.513-3.041 4.2379-6.3052 4.631-8.7634 0.34453-2.1546 1.4991-5.0268 2.5656-6.3827 2.6444-3.3618 8.0362-3.3862 11.128-0.0503 2.9612 3.1952 5.1664 15.429 4.2999 23.855-2.5489 24.788-3.3956 23.193 11.827 22.287 6.0714-0.36134 13.235-0.2316 15.918 0.28832 3.8259 0.74123 6.5778 0.53958 12.748-0.93413 4.6209-1.1037 10.656-1.7827 14.621-1.645 5.6307 0.19546 7.5824-0.20104 11.752-2.3875 26.31-13.796 25.73-13.356 30.791-23.378 1.3887-2.75 3.8039-7.4965 5.3671-10.548 1.5632-3.0513 3.4485-7.0026 4.1896-8.7806 0.74106-1.778 3.6678-6.4815 6.5038-10.452 6.2552-8.7576 7.9891-12.653 10.62-23.856 2.5725-10.953 2.5471-13.946-0.16243-19.153-1.6774-3.2235-2.1734-5.8506-2.1162-11.21 0.0643-6.0384 0.57135-7.9372 3.6908-13.823 1.9889-3.7525 3.6162-7.4064 3.6162-8.1197 0-0.71339 0.9-4.1143 2-7.5576s2-8.1924 2-10.554c0-5.3521 3.2383-9.5201 10.097-12.996 5.6454-2.8607 7.6375-3.0255 10.694-0.88476 6.1428 4.3026 8.3347 15.231 5.6788 28.314l-1.7938 8.8363 2.6621 8.5382c3.012 9.6606 3.3232 15.011 1.191 20.475-0.80908 2.0736-1.9104 6.5908-2.4473 10.038-0.53694 3.4473-2.0874 8.3973-3.4455 11-1.6926 3.2437-2.6343 7.0107-2.994 11.976-0.61474 8.4864-4.2903 17.602-8.8328 21.907-1.6534 1.5668-4.523 5.9987-6.377 9.8487-5.1066 10.604-8.2435 15.72-11.49 18.737-1.6197 1.5054-4.3289 4.9862-6.0203 7.7351s-8.3284 9.8183-14.749 15.71c-6.4204 5.8913-12.015 11.265-12.431 11.941-0.41694 0.67596-3.8534 3.4804-7.6367 6.2321-3.7832 2.7517-8.3374 7.0344-10.12 9.5172-5.486 7.6392-15.5 9.9678-22.087 5.1364-8.575-6.2891-14.356-6.6787-20.397-1.3747-4.0203 3.5299-6.2058 3.5685-15.386 0.27223-7.498-2.6923-10.474-2.6552-14.865 0.18532-3.7828 2.4468-2.5567 8.3644 2.83 13.659 0.9637 0.94723 2.2701 5.8568 3.3491 12.586 1.4983 9.3446 1.5713 11.617 0.47694 14.849-1.6084 4.7491-1.3842 6.9602 1.6315 16.091 3.3845 10.247 4.9938 32.765 2.9126 40.755-1.9199 7.3711-3.0638 9.3725-5.9932 10.486-2.3463 0.89208-10.884 0.99357-14.957 0.17779z"/>
  <metadata>
    <rdf:RDF>
      <cc:Work>
        <dc:format>image/svg+xml</dc:format>
        <dc:type rdf:resource="http://purl.org/dc/dcmitype/StillImage"/>
        <cc:license rdf:resource="http://creativecommons.org/licenses/publicdomain/"/>
        <dc:publisher>
          <cc:Agent rdf:about="http://openclipart.org/">
            <dc:title>Openclipart</dc:title>
          </cc:Agent>
        </dc:publisher>
        <dc:title>Rock Art Acacus Person 2</dc:title>
        <dc:date>2011-03-27T05:11:20</dc:date>
        <dc:description>Cave painting from Tadrart Acacus (Acacus Mountains) in the desert of western Libya, a UNESCO World Heritage Site. (Source: "http://en.wikipedia.org/wiki/File:Tadrart_Acacus_1.jpg")</dc:description>
        <dc:source>http://openclipart.org/detail/129355/rock-art-acacus-person-2-by-serioustux</dc:source>
        <dc:creator>
          <cc:Agent>
            <dc:title>SeriousTux</dc:title>
          </cc:Agent>
        </dc:creator>
        <dc:subject>
          <rdf:Bag>
            <rdf:li>Acacus Mountains</rdf:li>
            <rdf:li>Cave painting</rdf:li>
            <rdf:li>Libya</rdf:li>
            <rdf:li>Tadrart Acacus</rdf:li>
            <rdf:li>ancient</rdf:li>
            <rdf:li>clip art</rdf:li>
            <rdf:li>clipart</rdf:li>
            <rdf:li>person</rdf:li>
            <rdf:li>primitive</rdf:li>
            <rdf:li>rock art</rdf:li>
            <rdf:li>tribal</rdf:li>
          </rdf:Bag>
        </dc:subject>
      </cc:Work>
      <cc:License rdf:about="http://creativecommons.org/licenses/publicdomain/">
        <cc:permits rdf:resource="http://creativecommons.org/ns#Reproduction"/>
        <cc:permits rdf:resource="http://creativecommons.org/ns#Distribution"/>
        <cc:permits rdf:resource="http://creativecommons.org/ns#DerivativeWorks"/>
      </cc:License>
    </rdf:RDF>
  </metadata>
</svg>
